<mxfile host="app.diagrams.net" agent="Mozilla/5.0 (Windows NT 10.0; Win64; x64) AppleWebKit/537.36 (KHTML, like Gecko) Chrome/136.0.0.0 Safari/537.36 Edg/136.0.0.0" version="27.0.3">
  <diagram name="Pagina-1" id="gSSrMCq66Kzddgl86-XP">
    <mxGraphModel dx="940" dy="1656" grid="1" gridSize="10" guides="1" tooltips="1" connect="1" arrows="1" fold="1" page="1" pageScale="1" pageWidth="827" pageHeight="1169" math="0" shadow="0">
      <root>
        <mxCell id="0" />
        <mxCell id="1" parent="0" />
        <mxCell id="snjyw8eBCdg8TAxtx2AN-1" value="STM32&lt;div&gt;F401 NUCLEO Development board&lt;/div&gt;" style="rounded=1;whiteSpace=wrap;html=1;" parent="1" vertex="1">
          <mxGeometry x="300" y="-660" width="240" height="160" as="geometry" />
        </mxCell>
        <mxCell id="snjyw8eBCdg8TAxtx2AN-2" value="ESP32&lt;div&gt;Wemos S2 Mini&lt;/div&gt;" style="rounded=1;whiteSpace=wrap;html=1;" parent="1" vertex="1">
          <mxGeometry x="150" y="-530" width="120" height="60" as="geometry" />
        </mxCell>
        <mxCell id="Ds-TM6dTlvxQqw-qkSUV-2" value="&lt;span style=&quot;box-sizing: border-box; color: rgb(31, 35, 40); text-align: left; background-color: rgb(255, 255, 255);&quot;&gt;&lt;font face=&quot;Helvetica&quot; style=&quot;&quot;&gt;128x64 I2C OLED Display&lt;/font&gt;&lt;/span&gt;" style="rounded=1;whiteSpace=wrap;html=1;" parent="1" vertex="1">
          <mxGeometry x="40" y="-530" width="100" height="60" as="geometry" />
        </mxCell>
        <mxCell id="0twPXi_azoExUmEsfZcZ-1" value="" style="endArrow=none;html=1;rounded=0;exitX=0;exitY=0.5;exitDx=0;exitDy=0;" parent="1" source="snjyw8eBCdg8TAxtx2AN-1" edge="1">
          <mxGeometry width="50" height="50" relative="1" as="geometry">
            <mxPoint x="420" y="-661" as="sourcePoint" />
            <mxPoint x="90" y="-580" as="targetPoint" />
          </mxGeometry>
        </mxCell>
        <mxCell id="0twPXi_azoExUmEsfZcZ-2" value="" style="endArrow=none;html=1;rounded=0;entryX=0.5;entryY=0;entryDx=0;entryDy=0;" parent="1" target="Ds-TM6dTlvxQqw-qkSUV-2" edge="1">
          <mxGeometry width="50" height="50" relative="1" as="geometry">
            <mxPoint x="90" y="-580" as="sourcePoint" />
            <mxPoint x="150" y="-510" as="targetPoint" />
          </mxGeometry>
        </mxCell>
        <mxCell id="0twPXi_azoExUmEsfZcZ-3" value="" style="endArrow=none;html=1;rounded=0;entryX=0.5;entryY=0;entryDx=0;entryDy=0;fontSize=11;" parent="1" target="snjyw8eBCdg8TAxtx2AN-2" edge="1">
          <mxGeometry width="50" height="50" relative="1" as="geometry">
            <mxPoint x="210" y="-580" as="sourcePoint" />
            <mxPoint x="490" y="-660" as="targetPoint" />
          </mxGeometry>
        </mxCell>
        <mxCell id="0twPXi_azoExUmEsfZcZ-4" value="SPI" style="text;html=1;align=center;verticalAlign=middle;whiteSpace=wrap;rounded=0;" parent="1" vertex="1">
          <mxGeometry x="590" y="-610" width="60" height="30" as="geometry" />
        </mxCell>
        <mxCell id="0twPXi_azoExUmEsfZcZ-6" value="I2C" style="text;html=1;align=center;verticalAlign=middle;whiteSpace=wrap;rounded=0;" parent="1" vertex="1">
          <mxGeometry x="160" y="-610" width="60" height="30" as="geometry" />
        </mxCell>
        <mxCell id="0twPXi_azoExUmEsfZcZ-7" value="&lt;span style=&quot;box-sizing: border-box; color: rgb(31, 35, 40); text-align: left; background-color: rgb(255, 255, 255);&quot;&gt;&lt;font face=&quot;Helvetica&quot; style=&quot;&quot;&gt;RC522 RFID&lt;/font&gt;&lt;/span&gt;" style="rounded=1;whiteSpace=wrap;html=1;" parent="1" vertex="1">
          <mxGeometry x="630" y="-530" width="120" height="60" as="geometry" />
        </mxCell>
        <mxCell id="0twPXi_azoExUmEsfZcZ-8" value="" style="endArrow=none;html=1;rounded=0;exitX=1;exitY=0.5;exitDx=0;exitDy=0;" parent="1" source="snjyw8eBCdg8TAxtx2AN-1" edge="1">
          <mxGeometry width="50" height="50" relative="1" as="geometry">
            <mxPoint x="420" y="-610" as="sourcePoint" />
            <mxPoint x="690" y="-580" as="targetPoint" />
          </mxGeometry>
        </mxCell>
        <mxCell id="0twPXi_azoExUmEsfZcZ-9" value="" style="endArrow=none;html=1;rounded=0;exitX=0.5;exitY=0;exitDx=0;exitDy=0;" parent="1" source="0twPXi_azoExUmEsfZcZ-7" edge="1">
          <mxGeometry width="50" height="50" relative="1" as="geometry">
            <mxPoint x="420" y="-610" as="sourcePoint" />
            <mxPoint x="690" y="-580" as="targetPoint" />
          </mxGeometry>
        </mxCell>
        <mxCell id="0twPXi_azoExUmEsfZcZ-10" value="" style="endArrow=none;html=1;rounded=0;entryX=0.5;entryY=1;entryDx=0;entryDy=0;" parent="1" target="snjyw8eBCdg8TAxtx2AN-1" edge="1">
          <mxGeometry width="50" height="50" relative="1" as="geometry">
            <mxPoint x="420" y="-240" as="sourcePoint" />
            <mxPoint x="470" y="-450" as="targetPoint" />
          </mxGeometry>
        </mxCell>
        <mxCell id="0twPXi_azoExUmEsfZcZ-13" value="" style="endArrow=none;html=1;rounded=0;" parent="1" edge="1">
          <mxGeometry width="50" height="50" relative="1" as="geometry">
            <mxPoint x="420" y="-240" as="sourcePoint" />
            <mxPoint x="460" y="-240" as="targetPoint" />
          </mxGeometry>
        </mxCell>
        <mxCell id="0twPXi_azoExUmEsfZcZ-15" value="&lt;span style=&quot;box-sizing: border-box; color: rgb(31, 35, 40); text-align: left; background-color: rgb(255, 255, 255);&quot;&gt;&lt;font face=&quot;Helvetica&quot; style=&quot;&quot;&gt;4x4 Matrix Keypad&lt;/font&gt;&lt;/span&gt;" style="rounded=1;whiteSpace=wrap;html=1;" parent="1" vertex="1">
          <mxGeometry x="460" y="-250" width="80" height="40" as="geometry" />
        </mxCell>
        <mxCell id="0twPXi_azoExUmEsfZcZ-16" value="&lt;span style=&quot;color: rgb(31, 35, 40); text-align: left; background-color: rgb(255, 255, 255);&quot;&gt;HC-SR501 PIR&lt;/span&gt;" style="rounded=1;whiteSpace=wrap;html=1;" parent="1" vertex="1">
          <mxGeometry x="460" y="-300" width="80" height="40" as="geometry" />
        </mxCell>
        <mxCell id="0twPXi_azoExUmEsfZcZ-17" value="Reed-switch" style="rounded=1;whiteSpace=wrap;html=1;" parent="1" vertex="1">
          <mxGeometry x="460" y="-330" width="80" height="20" as="geometry" />
        </mxCell>
        <mxCell id="0twPXi_azoExUmEsfZcZ-18" value="Buzzer/LED" style="rounded=1;whiteSpace=wrap;html=1;" parent="1" vertex="1">
          <mxGeometry x="460" y="-370" width="80" height="20" as="geometry" />
        </mxCell>
        <mxCell id="0twPXi_azoExUmEsfZcZ-19" value="" style="endArrow=none;html=1;rounded=0;entryX=0;entryY=0.5;entryDx=0;entryDy=0;" parent="1" target="0twPXi_azoExUmEsfZcZ-18" edge="1">
          <mxGeometry width="50" height="50" relative="1" as="geometry">
            <mxPoint x="420" y="-360" as="sourcePoint" />
            <mxPoint x="450" y="-430" as="targetPoint" />
          </mxGeometry>
        </mxCell>
        <mxCell id="0twPXi_azoExUmEsfZcZ-20" value="" style="endArrow=none;html=1;rounded=0;entryX=0;entryY=0.5;entryDx=0;entryDy=0;" parent="1" target="0twPXi_azoExUmEsfZcZ-17" edge="1">
          <mxGeometry width="50" height="50" relative="1" as="geometry">
            <mxPoint x="420" y="-320" as="sourcePoint" />
            <mxPoint x="470" y="-350" as="targetPoint" />
            <Array as="points" />
          </mxGeometry>
        </mxCell>
        <mxCell id="0twPXi_azoExUmEsfZcZ-21" value="" style="endArrow=none;html=1;rounded=0;entryX=0;entryY=0.5;entryDx=0;entryDy=0;" parent="1" target="0twPXi_azoExUmEsfZcZ-16" edge="1">
          <mxGeometry width="50" height="50" relative="1" as="geometry">
            <mxPoint x="420" y="-280" as="sourcePoint" />
            <mxPoint x="480" y="-340" as="targetPoint" />
          </mxGeometry>
        </mxCell>
        <mxCell id="0twPXi_azoExUmEsfZcZ-22" value="PIN" style="text;html=1;align=center;verticalAlign=middle;whiteSpace=wrap;rounded=0;" parent="1" vertex="1">
          <mxGeometry x="420" y="-450" width="60" height="30" as="geometry" />
        </mxCell>
      </root>
    </mxGraphModel>
  </diagram>
</mxfile>
